<?xml version="1.0" encoding="utf-8"?>
<!-- Generator: Adobe Illustrator 15.0.2, SVG Export Plug-In . SVG Version: 6.00 Build 0)  -->
<!DOCTYPE svg PUBLIC "-//W3C//DTD SVG 1.1//EN" "http://www.w3.org/Graphics/SVG/1.1/DTD/svg11.dtd">
<svg version="1.1" id="Layer_1" xmlns="http://www.w3.org/2000/svg" xmlns:xlink="http://www.w3.org/1999/xlink" x="0px" y="0px"
	 width="300px" height="300px" viewBox="0 0 300 300" enable-background="new 0 0 300 300" xml:space="preserve">
<symbol  id="picto" viewBox="-33.4 -38.55 66.8 77.1">
	<g id="Layer_1_2_">
		<g>
			<polygon fill-rule="evenodd" clip-rule="evenodd" fill="#FFFED4" points="-18,9.9 -27.4,15.35 0.05,31.3 27.55,15.35 18.3,9.9 
				18.2,9.95 0.15,20.5 0.05,20.45 			"/>
			<path fill-rule="evenodd" clip-rule="evenodd" fill="#1D2028" d="M0,38.55l33.4-19.9V-19.9L0-38.55L-33.4-18.9v38.55L0,38.55z
				 M-18,9.9L0.05,20.45l0.1,0.05L18.2,9.95l0.1-0.05v-20.95L0.15-21.45l-0.1,0.05L-18-11.05V9.9z M-27.4,15.35v-31.7L0.05-32.2
				l27.5,15.85v31.7L0.05,31.3L-27.4,15.35z"/>
			<polygon fill-rule="evenodd" clip-rule="evenodd" fill="#9A9978" points="0.05,-32.2 0.05,-21.4 0.15,-21.45 18.3,-11.05 
				18.3,9.9 27.55,15.35 27.55,-16.35 			"/>
			<polygon fill-rule="evenodd" clip-rule="evenodd" fill="#BBBA9C" points="-27.4,15.35 -18,9.9 -18,-11.05 0.05,-21.4 0.05,-32.2 
				-27.4,-16.35 			"/>
			<g>
				<linearGradient id="SVGID_1_" gradientUnits="userSpaceOnUse" x1="0.2749" y1="2" x2="0.2749" y2="20.4">
					<stop  offset="0" style="stop-color:#FEDF00"/>
					<stop  offset="1" style="stop-color:#FEA700"/>
				</linearGradient>
				<polygon fill-rule="evenodd" clip-rule="evenodd" fill="url(#SVGID_1_)" points="20.65,11.3 0.2,-0.5 -20.1,11.3 0.2,22.9 				
					"/>
				<linearGradient id="SVGID_2_" gradientUnits="userSpaceOnUse" x1="1.856" y1="-1.4409" x2="20.0446" y2="-11.9673">
					<stop  offset="0" style="stop-color:#FF5100"/>
					<stop  offset="1" style="stop-color:#79150A"/>
				</linearGradient>
				<polygon fill-rule="evenodd" clip-rule="evenodd" fill="url(#SVGID_2_)" points="20.65,11.3 20.65,-12.15 0.2,-24.1 0.2,-0.5 
									"/>
				<linearGradient id="SVGID_3_" gradientUnits="userSpaceOnUse" x1="-19.7471" y1="-12.0493" x2="-1.0316" y2="-1.2577">
					<stop  offset="0" style="stop-color:#DE4700"/>
					<stop  offset="1" style="stop-color:#FE9900"/>
				</linearGradient>
				<polygon fill-rule="evenodd" clip-rule="evenodd" fill="url(#SVGID_3_)" points="0.2,-24.1 -20.1,-12.15 -20.1,11.3 0.2,-0.5 
									"/>
			</g>
		</g>
	</g>
</symbol>
<use xlink:href="#picto"  width="66.8" height="77.1" x="-33.4" y="-38.55" transform="matrix(3.8645 0 0 -3.8905 150 150)" overflow="visible"/>
</svg>
